<svg width="72" height="72" viewBox="0 0 72 72" fill="none" xmlns="http://www.w3.org/2000/svg">
<circle cx="36" cy="36" r="36" fill="#DA3743"/>
<path fill-rule="evenodd" clip-rule="evenodd" d="M16 36.2851C16 34.3134 17.6245 32.7143 19.6281 32.7143C21.6317 32.7143 23.2568 34.3134 23.2568 36.2851C23.2568 38.258 21.6317 39.8571 19.6281 39.8571C17.6245 39.8571 16 38.258 16 36.2851ZM41.4858 39.8571C39.4822 39.8571 37.8581 38.258 37.8581 36.2854C37.8581 34.3134 39.4822 32.7143 41.4858 32.7143C43.4898 32.7143 45.1148 34.3134 45.1148 36.2854C45.1148 38.258 43.4898 39.8571 41.4858 39.8571ZM41.4865 22C33.4708 22 26.9729 28.3961 26.9729 36.2854C26.9729 44.1756 33.4708 50.5714 41.4865 50.5714C49.5024 50.5714 56 44.1756 56 36.2854C56 28.3961 49.5024 22 41.4865 22Z" fill="white"/>
<mask id="mask0" mask-type="alpha" maskUnits="userSpaceOnUse" x="16" y="22" width="40" height="29">
<path fill-rule="evenodd" clip-rule="evenodd" d="M16 36.2851C16 34.3134 17.6245 32.7143 19.6281 32.7143C21.6317 32.7143 23.2568 34.3134 23.2568 36.2851C23.2568 38.258 21.6317 39.8571 19.6281 39.8571C17.6245 39.8571 16 38.258 16 36.2851ZM41.4858 39.8571C39.4822 39.8571 37.8581 38.258 37.8581 36.2854C37.8581 34.3134 39.4822 32.7143 41.4858 32.7143C43.4898 32.7143 45.1148 34.3134 45.1148 36.2854C45.1148 38.258 43.4898 39.8571 41.4858 39.8571ZM41.4865 22C33.4708 22 26.9729 28.3961 26.9729 36.2854C26.9729 44.1756 33.4708 50.5714 41.4865 50.5714C49.5024 50.5714 56 44.1756 56 36.2854C56 28.3961 49.5024 22 41.4865 22Z" fill="white"/>
</mask>
<g mask="url(#mask0)">
</g>
</svg>
